<svg xmlns="http://www.w3.org/2000/svg" viewBox="0 0 1024 1024">
  <rect width="1024" height="1024" fill="#000000"/>
  <g transform="translate(78.8 290.8) scale(2.28)">
    <rect x="0" y="0" width="380" height="194" rx="18" fill="#1C1C1E"/>
    <circle cx="354" cy="26" r="15" fill="#3A3A3C"/>
    <g fill="none" stroke="#F5F5F7" stroke-width="1.8" stroke-linecap="round" stroke-linejoin="round" transform="translate(346 18) scale(0.667)"><circle cx="12" cy="12" r="3.2" /><path d="M19.4 14.5a1.6 1.6 0 0 0 .3 1.8l.1.1a2 2 0 1 1-2.8 2.8l-.1-.1a1.6 1.6 0 0 0-1.8-.3 1.6 1.6 0 0 0-1 1.5v.2a2 2 0 1 1-4 0v-.1a1.6 1.6 0 0 0-1-1.5 1.6 1.6 0 0 0-1.8.3l-.1.1a2 2 0 1 1-2.8-2.8l.1-.1a1.6 1.6 0 0 0 .3-1.8 1.6 1.6 0 0 0-1.5-1H3a2 2 0 1 1 0-4h.1a1.6 1.6 0 0 0 1.5-1 1.6 1.6 0 0 0-.3-1.8l-.1-.1a2 2 0 1 1 2.8-2.8l.1.1a1.6 1.6 0 0 0 1.8.3H9a1.6 1.6 0 0 0 1-1.5V3a2 2 0 1 1 4 0v.1a1.6 1.6 0 0 0 1 1.5 1.6 1.6 0 0 0 1.8-.3l.1-.1a2 2 0 1 1 2.8 2.8l-.1.1a1.6 1.6 0 0 0-.3 1.8V9a1.6 1.6 0 0 0 1.5 1h.2a2 2 0 1 1 0 4h-.1a1.6 1.6 0 0 0-1.5 1z" /></g>
    <text x="190" y="31" font-family="Helvetica, Arial, sans-serif" font-size="12.5" fill="#8E8E93" text-anchor="middle">Dusk</text>
    <g fill="none" stroke="#8E8E93" stroke-width="1.8" stroke-linecap="round" stroke-linejoin="round" transform="translate(139 46) scale(0.75)"><circle cx="12" cy="12" r="8" /><path d="M12 7.5V12l3.2 2" /></g>
    <g fill="none" stroke="#8E8E93" stroke-width="1.8" stroke-linecap="round" stroke-linejoin="round" transform="translate(181 46) scale(0.75)"><path d="M3 19h18" /><path d="M7.5 15.5a4.5 4.5 0 0 1 9 0" /><path d="M12 3.5v5.5" /><path d="m9.2 6.3 2.8-2.8 2.8 2.8" /></g>
    <rect x="214" y="42" width="36" height="26" rx="6" fill="#3A3A3C"/>
    <g fill="none" stroke="#F5F5F7" stroke-width="1.8" stroke-linecap="round" stroke-linejoin="round" transform="translate(223 46) scale(0.75)"><path d="M3 19h18" /><path d="M7.5 15.5a4.5 4.5 0 0 1 9 0" /><path d="M12 3.5v5.5" /><path d="m9.2 6.2 2.8 2.8 2.8-2.8" /></g>
    <rect x="16" y="76" width="348" height="52" rx="10" fill="#2C2C2E" stroke="#3A3A3C"/>
    <circle cx="46" cy="102" r="13" fill="#3A3A3C"/>
    <g stroke="#F5F5F7" stroke-width="1.8" stroke-linecap="round"><path d="M41 102h10"/></g>
    <text x="190" y="113" font-family="Helvetica, Arial, sans-serif" font-size="34" font-weight="700" fill="#F5F5F7" text-anchor="middle">19:35</text>
    <circle cx="334" cy="102" r="13" fill="#3A3A3C"/>
    <g stroke="#F5F5F7" stroke-width="1.8" stroke-linecap="round"><path d="M329 102h10"/><path d="M334 97v10"/></g>
    <text x="190" y="145" font-family="Helvetica, Arial, sans-serif" font-size="12.5" fill="#8E8E93" text-anchor="middle">Sunset +15 min</text>
    <rect x="80" y="156" width="28" height="22" rx="6" fill="#3A3A3C"/>
    <text x="94.0" y="171.5" font-family="Helvetica, Arial, sans-serif" font-size="12.5" fill="#F5F5F7" text-anchor="middle">Mo</text>
    <rect x="112" y="156" width="28" height="22" rx="6" fill="#3A3A3C"/>
    <text x="126.0" y="171.5" font-family="Helvetica, Arial, sans-serif" font-size="12.5" fill="#F5F5F7" text-anchor="middle">Tu</text>
    <rect x="144" y="156" width="28" height="22" rx="6" fill="#3A3A3C"/>
    <text x="158.0" y="171.5" font-family="Helvetica, Arial, sans-serif" font-size="12.5" fill="#F5F5F7" text-anchor="middle">We</text>
    <rect x="176" y="156" width="28" height="22" rx="6" fill="#3A3A3C"/>
    <text x="190.0" y="171.5" font-family="Helvetica, Arial, sans-serif" font-size="12.5" fill="#F5F5F7" text-anchor="middle">Th</text>
    <rect x="208" y="156" width="28" height="22" rx="6" fill="#3A3A3C"/>
    <text x="222.0" y="171.5" font-family="Helvetica, Arial, sans-serif" font-size="12.5" fill="#F5F5F7" text-anchor="middle">Fr</text>
    <rect x="240" y="156" width="28" height="22" rx="6" fill="#3A3A3C"/>
    <text x="254.0" y="171.5" font-family="Helvetica, Arial, sans-serif" font-size="12.5" fill="#F5F5F7" text-anchor="middle">Sa</text>
    <rect x="272" y="156" width="28" height="22" rx="6" fill="#3A3A3C"/>
    <text x="286.0" y="171.5" font-family="Helvetica, Arial, sans-serif" font-size="12.5" fill="#F5F5F7" text-anchor="middle">Su</text>
  </g>
</svg>
